FILE "Anna Karenina [B072HY9JJ1].m4b" MP3
TRACK 1 AUDIO
  TITLE "Part One"
  INDEX 01 0:00:00
TRACK 2 AUDIO
  TITLE "Chapter 1"
  INDEX 01 0:20:49
TRACK 3 AUDIO
  TITLE "Chapter 2"
  INDEX 01 6:51:27
TRACK 4 AUDIO
  TITLE "Chapter 3"
  INDEX 01 15:19:13
TRACK 5 AUDIO
  TITLE "Chapter 4"
  INDEX 01 25:50:36
TRACK 6 AUDIO
  TITLE "Chapter 5"
  INDEX 01 37:57:20
TRACK 7 AUDIO
  TITLE "Chapter 6"
  INDEX 01 57:16:38
TRACK 8 AUDIO
  TITLE "Chapter 7"
  INDEX 01 64:15:19
TRACK 9 AUDIO
  TITLE "Chapter 8"
  INDEX 01 69:14:11
TRACK 10 AUDIO
  TITLE "Chapter 9"
  INDEX 01 74:48:20
TRACK 11 AUDIO
  TITLE "Chapter 10"
  INDEX 01 90:25:15
TRACK 12 AUDIO
  TITLE "Chapter 11"
  INDEX 01 106:24:52
TRACK 13 AUDIO
  TITLE "Chapter 12"
  INDEX 01 116:09:21
TRACK 14 AUDIO
  TITLE "Chapter 13"
  INDEX 01 126:10:26
TRACK 15 AUDIO
  TITLE "Chapter 14"
  INDEX 01 131:51:69
TRACK 16 AUDIO
  TITLE "Chapter 15"
  INDEX 01 146:56:18
TRACK 17 AUDIO
  TITLE "Chapter 16"
  INDEX 01 152:21:07
TRACK 18 AUDIO
  TITLE "Chapter 17"
  INDEX 01 156:54:02
TRACK 19 AUDIO
  TITLE "Chapter 18"
  INDEX 01 164:07:71
TRACK 20 AUDIO
  TITLE "Chapter 19"
  INDEX 01 175:55:17
TRACK 21 AUDIO
  TITLE "Chapter 20"
  INDEX 01 189:53:18
TRACK 22 AUDIO
  TITLE "Chapter 21"
  INDEX 01 197:35:58
TRACK 23 AUDIO
  TITLE "Chapter 22"
  INDEX 01 202:40:35
TRACK 24 AUDIO
  TITLE "Chapter 23"
  INDEX 01 213:29:07
TRACK 25 AUDIO
  TITLE "Chapter 24"
  INDEX 01 223:37:17
TRACK 26 AUDIO
  TITLE "Chapter 25"
  INDEX 01 232:56:20
TRACK 27 AUDIO
  TITLE "Chapter 26"
  INDEX 01 243:27:68
TRACK 28 AUDIO
  TITLE "Chapter 27"
  INDEX 01 251:27:71
TRACK 29 AUDIO
  TITLE "Chapter 28"
  INDEX 01 257:03:18
TRACK 30 AUDIO
  TITLE "Chapter 29"
  INDEX 01 263:27:37
TRACK 31 AUDIO
  TITLE "Chapter 30"
  INDEX 01 271:07:64
TRACK 32 AUDIO
  TITLE "Chapter 31"
  INDEX 01 277:44:61
TRACK 33 AUDIO
  TITLE "Chapter 32"
  INDEX 01 285:49:10
TRACK 34 AUDIO
  TITLE "Chapter 33"
  INDEX 01 291:06:10
TRACK 35 AUDIO
  TITLE "Chapter 34"
  INDEX 01 299:13:57
TRACK 36 AUDIO
  TITLE "Part Two"
  INDEX 01 308:20:47
TRACK 37 AUDIO
  TITLE "Chapter 1"
  INDEX 01 308:22:72
TRACK 38 AUDIO
  TITLE "Chapter 2"
  INDEX 01 316:25:28
TRACK 39 AUDIO
  TITLE "Chapter 3"
  INDEX 01 324:30:54
TRACK 40 AUDIO
  TITLE "Chapter 4"
  INDEX 01 331:53:22
TRACK 41 AUDIO
  TITLE "Chapter 5"
  INDEX 01 339:12:39
TRACK 42 AUDIO
  TITLE "Chapter 6"
  INDEX 01 346:57:56
TRACK 43 AUDIO
  TITLE "Chapter 7"
  INDEX 01 357:38:08
TRACK 44 AUDIO
  TITLE "Chapter 8"
  INDEX 01 369:23:57
TRACK 45 AUDIO
  TITLE "Chapter 9"
  INDEX 01 378:22:42
TRACK 46 AUDIO
  TITLE "Chapter 10"
  INDEX 01 387:14:71
TRACK 47 AUDIO
  TITLE "Chapter 11"
  INDEX 01 388:46:29
TRACK 48 AUDIO
  TITLE "Chapter 12"
  INDEX 01 393:42:47
TRACK 49 AUDIO
  TITLE "Chapter 13"
  INDEX 01 400:52:60
TRACK 50 AUDIO
  TITLE "Chapter 14"
  INDEX 01 415:11:01
TRACK 51 AUDIO
  TITLE "Chapter 15"
  INDEX 01 425:10:69
TRACK 52 AUDIO
  TITLE "Chapter 16"
  INDEX 01 432:46:34
TRACK 53 AUDIO
  TITLE "Chapter 17"
  INDEX 01 442:03:34
TRACK 54 AUDIO
  TITLE "Chapter 18"
  INDEX 01 451:37:51
TRACK 55 AUDIO
  TITLE "Chapter 19"
  INDEX 01 455:50:48
TRACK 56 AUDIO
  TITLE "Chapter 20"
  INDEX 01 462:35:72
TRACK 57 AUDIO
  TITLE "Chapter 21"
  INDEX 01 468:20:55
TRACK 58 AUDIO
  TITLE "Chapter 22"
  INDEX 01 479:47:02
TRACK 59 AUDIO
  TITLE "Chapter 23"
  INDEX 01 491:02:16
TRACK 60 AUDIO
  TITLE "Chapter 24"
  INDEX 01 497:13:34
TRACK 61 AUDIO
  TITLE "Chapter 25"
  INDEX 01 509:49:62
TRACK 62 AUDIO
  TITLE "Chapter 26"
  INDEX 01 521:20:04
TRACK 63 AUDIO
  TITLE "Chapter 27"
  INDEX 01 532:00:66
TRACK 64 AUDIO
  TITLE "Chapter 28"
  INDEX 01 537:49:14
TRACK 65 AUDIO
  TITLE "Chapter 29"
  INDEX 01 546:53:24
TRACK 66 AUDIO
  TITLE "Chapter 30"
  INDEX 01 555:47:69
TRACK 67 AUDIO
  TITLE "Chapter 31"
  INDEX 01 563:40:10
TRACK 68 AUDIO
  TITLE "Chapter 32"
  INDEX 01 569:29:06
TRACK 69 AUDIO
  TITLE "Chapter 33"
  INDEX 01 579:51:49
TRACK 70 AUDIO
  TITLE "Chapter 34"
  INDEX 01 589:46:69
TRACK 71 AUDIO
  TITLE "Chapter 35"
  INDEX 01 602:26:44
TRACK 72 AUDIO
  TITLE "Part Three"
  INDEX 01 613:34:68
TRACK 73 AUDIO
  TITLE "Chapter 1"
  INDEX 01 613:37:15
TRACK 74 AUDIO
  TITLE "Chapter 2"
  INDEX 01 621:39:27
TRACK 75 AUDIO
  TITLE "Chapter 3"
  INDEX 01 627:42:28
TRACK 76 AUDIO
  TITLE "Chapter 4"
  INDEX 01 640:32:69
TRACK 77 AUDIO
  TITLE "Chapter 5"
  INDEX 01 651:13:10
TRACK 78 AUDIO
  TITLE "Chapter 6"
  INDEX 01 661:58:56
TRACK 79 AUDIO
  TITLE "Chapter 7"
  INDEX 01 668:55:62
TRACK 80 AUDIO
  TITLE "Chapter 8"
  INDEX 01 677:34:63
TRACK 81 AUDIO
  TITLE "Chapter 9"
  INDEX 01 687:42:69
TRACK 82 AUDIO
  TITLE "Chapter 10"
  INDEX 01 694:00:67
TRACK 83 AUDIO
  TITLE "Chapter 11"
  INDEX 01 703:23:63
TRACK 84 AUDIO
  TITLE "Chapter 12"
  INDEX 01 709:52:62
TRACK 85 AUDIO
  TITLE "Chapter 13"
  INDEX 01 719:06:46
TRACK 86 AUDIO
  TITLE "Chapter 14"
  INDEX 01 733:56:20
TRACK 87 AUDIO
  TITLE "Chapter 15"
  INDEX 01 744:10:46
TRACK 88 AUDIO
  TITLE "Chapter 16"
  INDEX 01 756:29:08
TRACK 89 AUDIO
  TITLE "Chapter 17"
  INDEX 01 764:57:33
TRACK 90 AUDIO
  TITLE "Chapter 18"
  INDEX 01 776:07:46
TRACK 91 AUDIO
  TITLE "Chapter 19"
  INDEX 01 785:39:25
TRACK 92 AUDIO
  TITLE "Chapter 20"
  INDEX 01 792:42:30
TRACK 93 AUDIO
  TITLE "Chapter 21"
  INDEX 01 799:49:21
TRACK 94 AUDIO
  TITLE "Chapter 22"
  INDEX 01 813:43:64
TRACK 95 AUDIO
  TITLE "Chapter 23"
  INDEX 01 825:43:57
TRACK 96 AUDIO
  TITLE "Chapter 24"
  INDEX 01 834:15:43
TRACK 97 AUDIO
  TITLE "Chapter 25"
  INDEX 01 842:29:45
TRACK 98 AUDIO
  TITLE "Chapter 26"
  INDEX 01 849:24:58
TRACK 99 AUDIO
  TITLE "Chapter 27"
  INDEX 01 860:01:42
TRACK 100 AUDIO
  TITLE "Chapter 28"
  INDEX 01 873:04:12
TRACK 101 AUDIO
  TITLE "Chapter 29"
  INDEX 01 883:17:51
TRACK 102 AUDIO
  TITLE "Chapter 30"
  INDEX 01 893:10:23
TRACK 103 AUDIO
  TITLE "Chapter 31"
  INDEX 01 901:04:48
TRACK 104 AUDIO
  TITLE "Chapter 32"
  INDEX 01 910:29:54
TRACK 105 AUDIO
  TITLE "Part Four"
  INDEX 01 917:29:23
TRACK 106 AUDIO
  TITLE "Chapter 1"
  INDEX 01 917:31:49
TRACK 107 AUDIO
  TITLE "Chapter 2"
  INDEX 01 923:34:28
TRACK 108 AUDIO
  TITLE "Chapter 3"
  INDEX 01 928:52:29
TRACK 109 AUDIO
  TITLE "Chapter 4"
  INDEX 01 941:11:08
TRACK 110 AUDIO
  TITLE "Chapter 5"
  INDEX 01 949:12:55
TRACK 111 AUDIO
  TITLE "Chapter 6"
  INDEX 01 960:49:36
TRACK 112 AUDIO
  TITLE "Chapter 7"
  INDEX 01 969:28:05
TRACK 113 AUDIO
  TITLE "Chapter 8"
  INDEX 01 978:46:66
TRACK 114 AUDIO
  TITLE "Chapter 9"
  INDEX 01 988:14:28
TRACK 115 AUDIO
  TITLE "Chapter 10"
  INDEX 01 1002:10:05
TRACK 116 AUDIO
  TITLE "Chapter 11"
  INDEX 01 1011:29:25
TRACK 117 AUDIO
  TITLE "Chapter 12"
  INDEX 01 1015:21:12
TRACK 118 AUDIO
  TITLE "Chapter 13"
  INDEX 01 1027:03:36
TRACK 119 AUDIO
  TITLE "Chapter 14"
  INDEX 01 1035:54:42
TRACK 120 AUDIO
  TITLE "Chapter 15"
  INDEX 01 1045:21:59
TRACK 121 AUDIO
  TITLE "Chapter 16"
  INDEX 01 1053:45:25
TRACK 122 AUDIO
  TITLE "Chapter 17"
  INDEX 01 1061:54:64
TRACK 123 AUDIO
  TITLE "Chapter 18"
  INDEX 01 1080:19:21
TRACK 124 AUDIO
  TITLE "Chapter 19"
  INDEX 01 1090:16:27
TRACK 125 AUDIO
  TITLE "Chapter 20"
  INDEX 01 1104:13:02
TRACK 126 AUDIO
  TITLE "Chapter 21"
  INDEX 01 1108:44:45
TRACK 127 AUDIO
  TITLE "Chapter 22"
  INDEX 01 1116:12:22
TRACK 128 AUDIO
  TITLE "Chapter 23"
  INDEX 01 1127:50:38
TRACK 129 AUDIO
  TITLE "Part Five"
  INDEX 01 1134:55:64
TRACK 130 AUDIO
  TITLE "Chapter 1"
  INDEX 01 1134:58:22
TRACK 131 AUDIO
  TITLE "Chapter 2"
  INDEX 01 1150:17:55
TRACK 132 AUDIO
  TITLE "Chapter 3"
  INDEX 01 1162:09:74
TRACK 133 AUDIO
  TITLE "Chapter 4"
  INDEX 01 1168:33:19
TRACK 134 AUDIO
  TITLE "Chapter 5"
  INDEX 01 1183:30:46
TRACK 135 AUDIO
  TITLE "Chapter 6"
  INDEX 01 1189:41:15
TRACK 136 AUDIO
  TITLE "Chapter 7"
  INDEX 01 1194:18:30
TRACK 137 AUDIO
  TITLE "Chapter 8"
  INDEX 01 1205:50:09
TRACK 138 AUDIO
  TITLE "Chapter 9"
  INDEX 01 1214:10:59
TRACK 139 AUDIO
  TITLE "Chapter 10"
  INDEX 01 1221:27:10
TRACK 140 AUDIO
  TITLE "Chapter 11"
  INDEX 01 1227:23:01
TRACK 141 AUDIO
  TITLE "Chapter 12"
  INDEX 01 1239:49:12
TRACK 142 AUDIO
  TITLE "Chapter 13"
  INDEX 01 1244:29:39
TRACK 143 AUDIO
  TITLE "Chapter 14"
  INDEX 01 1251:06:29
TRACK 144 AUDIO
  TITLE "Chapter 15"
  INDEX 01 1261:25:05
TRACK 145 AUDIO
  TITLE "Chapter 16"
  INDEX 01 1271:10:09
TRACK 146 AUDIO
  TITLE "Chapter 17"
  INDEX 01 1278:04:51
TRACK 147 AUDIO
  TITLE "Chapter 18"
  INDEX 01 1289:15:52
TRACK 148 AUDIO
  TITLE "Chapter 19"
  INDEX 01 1297:28:52
TRACK 149 AUDIO
  TITLE "Chapter 20"
  INDEX 01 1305:56:53
TRACK 150 AUDIO
  TITLE "Chapter 21"
  INDEX 01 1324:50:12
TRACK 151 AUDIO
  TITLE "Chapter 22"
  INDEX 01 1333:47:11
TRACK 152 AUDIO
  TITLE "Chapter 23"
  INDEX 01 1344:25:04
TRACK 153 AUDIO
  TITLE "Chapter 24"
  INDEX 01 1351:16:52
TRACK 154 AUDIO
  TITLE "Chapter 25"
  INDEX 01 1361:40:39
TRACK 155 AUDIO
  TITLE "Chapter 26"
  INDEX 01 1368:38:57
TRACK 156 AUDIO
  TITLE "Chapter 27"
  INDEX 01 1375:41:48
TRACK 157 AUDIO
  TITLE "Chapter 28"
  INDEX 01 1386:13:51
TRACK 158 AUDIO
  TITLE "Chapter 29"
  INDEX 01 1394:33:28
TRACK 159 AUDIO
  TITLE "Chapter 30"
  INDEX 01 1406:42:01
TRACK 160 AUDIO
  TITLE "Chapter 31"
  INDEX 01 1414:19:34
TRACK 161 AUDIO
  TITLE "Chapter 32"
  INDEX 01 1423:33:08
TRACK 162 AUDIO
  TITLE "Chapter 33"
  INDEX 01 1429:45:14
TRACK 163 AUDIO
  TITLE "Part Six"
  INDEX 01 1446:47:66
TRACK 164 AUDIO
  TITLE "Chapter 1"
  INDEX 01 1446:50:34
TRACK 165 AUDIO
  TITLE "Chapter 2"
  INDEX 01 1452:56:64
TRACK 166 AUDIO
  TITLE "Chapter 3"
  INDEX 01 1464:14:45
TRACK 167 AUDIO
  TITLE "Chapter 4"
  INDEX 01 1473:01:73
TRACK 168 AUDIO
  TITLE "Chapter 5"
  INDEX 01 1480:04:60
TRACK 169 AUDIO
  TITLE "Chapter 6"
  INDEX 01 1486:01:73
TRACK 170 AUDIO
  TITLE "Chapter 7"
  INDEX 01 1495:34:22
TRACK 171 AUDIO
  TITLE "Chapter 8"
  INDEX 01 1507:20:63
TRACK 172 AUDIO
  TITLE "Chapter 9"
  INDEX 01 1515:44:60
TRACK 173 AUDIO
  TITLE "Chapter 10"
  INDEX 01 1523:53:36
TRACK 174 AUDIO
  TITLE "Chapter 11"
  INDEX 01 1535:12:29
TRACK 175 AUDIO
  TITLE "Chapter 12"
  INDEX 01 1549:48:05
TRACK 176 AUDIO
  TITLE "Chapter 13"
  INDEX 01 1559:54:74
TRACK 177 AUDIO
  TITLE "Chapter 14"
  INDEX 01 1564:18:29
TRACK 178 AUDIO
  TITLE "Chapter 15"
  INDEX 01 1573:32:59
TRACK 179 AUDIO
  TITLE "Chapter 16"
  INDEX 01 1583:27:06
TRACK 180 AUDIO
  TITLE "Chapter 17"
  INDEX 01 1595:42:69
TRACK 181 AUDIO
  TITLE "Chapter 18"
  INDEX 01 1605:52:02
TRACK 182 AUDIO
  TITLE "Chapter 19"
  INDEX 01 1614:31:28
TRACK 183 AUDIO
  TITLE "Chapter 20"
  INDEX 01 1625:08:53
TRACK 184 AUDIO
  TITLE "Chapter 21"
  INDEX 01 1636:31:70
TRACK 185 AUDIO
  TITLE "Chapter 22"
  INDEX 01 1646:54:38
TRACK 186 AUDIO
  TITLE "Chapter 23"
  INDEX 01 1664:17:13
TRACK 187 AUDIO
  TITLE "Chapter 24"
  INDEX 01 1674:50:25
TRACK 188 AUDIO
  TITLE "Chapter 25"
  INDEX 01 1683:57:44
TRACK 189 AUDIO
  TITLE "Chapter 26"
  INDEX 01 1690:29:02
TRACK 190 AUDIO
  TITLE "Chapter 27"
  INDEX 01 1699:47:45
TRACK 191 AUDIO
  TITLE "Chapter 28"
  INDEX 01 1704:43:32
TRACK 192 AUDIO
  TITLE "Chapter 29"
  INDEX 01 1714:05:40
TRACK 193 AUDIO
  TITLE "Chapter 30"
  INDEX 01 1723:11:43
TRACK 194 AUDIO
  TITLE "Chapter 31"
  INDEX 01 1733:55:11
TRACK 195 AUDIO
  TITLE "Chapter 32"
  INDEX 01 1741:32:54
TRACK 196 AUDIO
  TITLE "Part Seven"
  INDEX 01 1750:29:04
TRACK 197 AUDIO
  TITLE "Chapter 1"
  INDEX 01 1750:31:21
TRACK 198 AUDIO
  TITLE "Chapter 2"
  INDEX 01 1758:08:57
TRACK 199 AUDIO
  TITLE "Chapter 3"
  INDEX 01 1767:16:11
TRACK 200 AUDIO
  TITLE "Chapter 4"
  INDEX 01 1776:58:41
TRACK 201 AUDIO
  TITLE "Chapter 5"
  INDEX 01 1784:15:10
TRACK 202 AUDIO
  TITLE "Chapter 6"
  INDEX 01 1789:13:38
TRACK 203 AUDIO
  TITLE "Chapter 7"
  INDEX 01 1793:37:42
TRACK 204 AUDIO
  TITLE "Chapter 8"
  INDEX 01 1801:29:26
TRACK 205 AUDIO
  TITLE "Chapter 9"
  INDEX 01 1808:06:24
TRACK 206 AUDIO
  TITLE "Chapter 10"
  INDEX 01 1814:55:23
TRACK 207 AUDIO
  TITLE "Chapter 11"
  INDEX 01 1826:34:69
TRACK 208 AUDIO
  TITLE "Chapter 12"
  INDEX 01 1832:33:37
TRACK 209 AUDIO
  TITLE "Chapter 13"
  INDEX 01 1839:45:22
TRACK 210 AUDIO
  TITLE "Chapter 14"
  INDEX 01 1847:27:24
TRACK 211 AUDIO
  TITLE "Chapter 15"
  INDEX 01 1860:06:04
TRACK 212 AUDIO
  TITLE "Chapter 16"
  INDEX 01 1867:13:16
TRACK 213 AUDIO
  TITLE "Chapter 17"
  INDEX 01 1873:18:10
TRACK 214 AUDIO
  TITLE "Chapter 18"
  INDEX 01 1883:14:04
TRACK 215 AUDIO
  TITLE "Chapter 19"
  INDEX 01 1890:14:07
TRACK 216 AUDIO
  TITLE "Chapter 20"
  INDEX 01 1896:26:24
TRACK 217 AUDIO
  TITLE "Chapter 21"
  INDEX 01 1906:35:04
TRACK 218 AUDIO
  TITLE "Chapter 22"
  INDEX 01 1919:09:56
TRACK 219 AUDIO
  TITLE "Chapter 23"
  INDEX 01 1925:02:55
TRACK 220 AUDIO
  TITLE "Chapter 24"
  INDEX 01 1933:01:15
TRACK 221 AUDIO
  TITLE "Chapter 25"
  INDEX 01 1943:28:18
TRACK 222 AUDIO
  TITLE "Chapter 26"
  INDEX 01 1954:44:68
TRACK 223 AUDIO
  TITLE "Chapter 27"
  INDEX 01 1964:24:19
TRACK 224 AUDIO
  TITLE "Chapter 28"
  INDEX 01 1970:54:26
TRACK 225 AUDIO
  TITLE "Chapter 29"
  INDEX 01 1981:00:32
TRACK 226 AUDIO
  TITLE "Chapter 30"
  INDEX 01 1987:25:49
TRACK 227 AUDIO
  TITLE "Chapter 31"
  INDEX 01 1996:01:07
TRACK 228 AUDIO
  TITLE "Part Eight"
  INDEX 01 2007:07:24
TRACK 229 AUDIO
  TITLE "Chapter 1"
  INDEX 01 2007:09:49
TRACK 230 AUDIO
  TITLE "Chapter 2"
  INDEX 01 2015:30:65
TRACK 231 AUDIO
  TITLE "Chapter 3"
  INDEX 01 2022:31:07
TRACK 232 AUDIO
  TITLE "Chapter 4"
  INDEX 01 2027:51:43
TRACK 233 AUDIO
  TITLE "Chapter 5"
  INDEX 01 2032:28:20
TRACK 234 AUDIO
  TITLE "Chapter 6"
  INDEX 01 2038:03:46
TRACK 235 AUDIO
  TITLE "Chapter 7"
  INDEX 01 2043:52:49
TRACK 236 AUDIO
  TITLE "Chapter 8"
  INDEX 01 2049:06:09
TRACK 237 AUDIO
  TITLE "Chapter 9"
  INDEX 01 2054:25:47
TRACK 238 AUDIO
  TITLE "Chapter 10"
  INDEX 01 2059:28:73
TRACK 239 AUDIO
  TITLE "Chapter 11"
  INDEX 01 2066:05:53
TRACK 240 AUDIO
  TITLE "Chapter 12"
  INDEX 01 2072:38:30
TRACK 241 AUDIO
  TITLE "Chapter 13"
  INDEX 01 2081:57:27
TRACK 242 AUDIO
  TITLE "Chapter 14"
  INDEX 01 2088:52:36
TRACK 243 AUDIO
  TITLE "Chapter 15"
  INDEX 01 2098:57:48
TRACK 244 AUDIO
  TITLE "Chapter 16"
  INDEX 01 2107:56:19
TRACK 245 AUDIO
  TITLE "Chapter 17"
  INDEX 01 2115:39:09
TRACK 246 AUDIO
  TITLE "Chapter 18"
  INDEX 01 2120:45:29
TRACK 247 AUDIO
  TITLE "Chapter 19"
  INDEX 01 2127:30:57
